<svg preserveAspectRatio="none" overflow="visible" style="display: block;" width="33.5" height="33.5" viewBox="0 0 33.5 33.5" fill="none" xmlns="http://www.w3.org/2000/svg">
<path id="Icon" d="M5.08333 31.75H28.4167C30.2576 31.75 31.75 30.2576 31.75 28.4167V5.08333C31.75 3.24238 30.2576 1.75 28.4167 1.75H5.08333C3.24238 1.75 1.75 3.24238 1.75 5.08333V28.4167C1.75 30.2576 3.24238 31.75 5.08333 31.75ZM5.08333 31.75L23.4167 13.4167L31.75 21.75M13.4167 10.9167C13.4167 12.2974 12.2974 13.4167 10.9167 13.4167C9.53595 13.4167 8.41667 12.2974 8.41667 10.9167C8.41667 9.53595 9.53595 8.41667 10.9167 8.41667C12.2974 8.41667 13.4167 9.53595 13.4167 10.9167Z" stroke="#1E1E1E" stroke-width="3.5" stroke-linecap="round" stroke-linejoin="round"/>
</svg>
